<svg xmlns="http://www.w3.org/2000/svg" width="600" height="660" viewBox="0 0 600 660">
  <defs>
    <radialGradient id="shine" cx="40%" cy="30%" r="60%">
      <stop offset="0" stop-color="#fff" stop-opacity="0.3"/>
      <stop offset="1" stop-color="#000" stop-opacity="0.08"/>
    </radialGradient>
    <clipPath id="shield_cut">
      <path id="shield" d="M -298.5,-298.5 L 298.5,-298.5 L 298.5,-40 C 298.5,246.31 0,358.5 0,358.5 C 0,358.5 -298.5,246.31 -298.5,-40 L -298.5,-298.5 z"/>
    </clipPath>
  </defs>
  <g transform="translate(300,300)">
    <use href="#shield" style="fill:#ffffff"/>
    <use href="#shield" style="fill:none;stroke:#222;stroke-width:6;stroke-linejoin:round"/>
    <use href="#shield" style="fill:none;stroke:#888;stroke-width:2;stroke-linejoin:round" transform="translate(0,2)"/>
    <path style="fill:#000000;fill-rule:evenodd" d="M 0,-276.74761 -295.6875,7.15864 c 3.1029,25.70608 8.6833,49.83529 16.1875,72.4375 L 0,-188.74761 279.5,79.59614 c 7.5042,-22.60221 13.0846,-46.73142 16.1875,-72.4375 z m 0,176 -252.4375,242.375 c 10.6246,19.40672 22.5972,37.3781 35.4375,53.96875 L 0,-12.74761 217,195.59614 c 12.838,-16.58775 24.8143,-34.56593 35.4375,-53.96875 z m 0,176 -174.6875,167.71875 c 15.9133,15.59608 32.2317,29.48942 48.1875,41.75 L 0,163.25239 126.5,284.72114 c 15.9558,-12.26058 32.2742,-26.15392 48.1875,-41.75 z"/>
    <use href="#shield" style="fill:url(#shine)"/>
    <use href="#shield" style="fill:none;stroke:#222;stroke-width:3;stroke-linejoin:round"/>
  </g>
</svg>
